<svg id="Layer_1" data-name="Layer 1" xmlns="http://www.w3.org/2000/svg" viewBox="0 0 340.47 683.42"><defs><style>.cls-1{opacity:0.2;}.cls-2{fill:#d39358;}.cls-3{fill:#413935;}.cls-4{fill:#e0bb8f;}.cls-5{fill:#9b6c39;}.cls-6{fill:none;}.cls-7{fill:#724f2d;}.cls-8{opacity:0.05;}.cls-9{fill:#846084;}.cls-10{fill:#bc81b8;}.cls-11{fill:#926790;}</style></defs><title>bear</title><ellipse class="cls-1" cx="170.24" cy="669.96" rx="168.28" ry="13.46"/><circle class="cls-2" cx="87.26" cy="61" r="37.61"/><circle class="cls-3" cx="87.26" cy="61" r="22.6"/><circle class="cls-2" cx="254.11" cy="61" r="37.61"/><circle class="cls-3" cx="254.11" cy="61" r="22.6"/><path class="cls-2" d="M170.24,20.84h0A102.73,102.73,0,0,1,273,123.56v85.94a0,0,0,0,1,0,0H67.51a0,0,0,0,1,0,0V123.56A102.73,102.73,0,0,1,170.24,20.84Z"/><circle class="cls-4" cx="170.24" cy="121.21" r="32.19"/><circle class="cls-3" cx="170.24" cy="104.88" r="15.87"/><circle class="cls-3" cx="113.83" cy="76.87" r="3.97"/><path class="cls-5" d="M227.94,559.88h85a0,0,0,0,1,0,0v99.43a14.83,14.83,0,0,1-14.83,14.83H242.77a14.83,14.83,0,0,1-14.83-14.83V559.88A0,0,0,0,1,227.94,559.88Z"/><path class="cls-5" d="M27.53,559.88h85a0,0,0,0,1,0,0v99.43A14.83,14.83,0,0,1,97.7,674.13H42.36a14.83,14.83,0,0,1-14.83-14.83V559.88A0,0,0,0,1,27.53,559.88Z"/><circle class="cls-3" cx="222.81" cy="76.87" r="3.97"/><path class="cls-2" d="M151.22,173.54h38A151.22,151.22,0,0,1,340.47,324.76v155.4A136.85,136.85,0,0,1,203.62,617H136.85A136.85,136.85,0,0,1,0,480.16V324.76A151.22,151.22,0,0,1,151.22,173.54Z"/><circle class="cls-3" cx="170.24" cy="507.22" r="3.97"/><path class="cls-5" d="M0,320.77H82.49a0,0,0,0,1,0,0v92.16a41.24,41.24,0,0,1-41.24,41.24h0A41.24,41.24,0,0,1,0,412.93V320.77A0,0,0,0,1,0,320.77Z"/><path class="cls-6" d="M127.4,394.23v92.16a41.24,41.24,0,0,0,38.42,41.14V511.68h6.44v15.79a41.25,41.25,0,0,0,37.63-41.08V394.23Z" transform="translate(-127.4 -73.46)"/><path class="cls-7" d="M165.82,511.68v15.85c.94.06,1.88.11,2.83.11h0c1.21,0,2.42-.07,3.61-.17V511.68Z" transform="translate(-127.4 -73.46)"/><path class="cls-6" d="M127.4,394.23v92.16a41.25,41.25,0,0,0,41.25,41.25h0a41,41,0,0,0,14.16-2.5V511.68h6.44v10.44a41.22,41.22,0,0,0,20.64-35.73V394.23Z" transform="translate(-127.4 -73.46)"/><path class="cls-7" d="M182.81,511.68v13.46a40.7,40.7,0,0,0,6.44-3V511.68Z" transform="translate(-127.4 -73.46)"/><path class="cls-6" d="M127.4,394.13v92.16A41.22,41.22,0,0,0,148,522V511.68h6.44V525a41.08,41.08,0,0,0,14.17,2.5h0a41.24,41.24,0,0,0,41.24-41.24V394.13Z" transform="translate(-127.4 -73.46)"/><path class="cls-7" d="M148,511.68V522a41.12,41.12,0,0,0,6.44,3V511.68Z" transform="translate(-127.4 -73.46)"/><path class="cls-5" d="M257.92,320.72h82.49a0,0,0,0,1,0,0v92.16a41.24,41.24,0,0,1-41.24,41.24h0a41.24,41.24,0,0,1-41.24-41.24V320.72A0,0,0,0,1,257.92,320.72Z"/><path class="cls-6" d="M385.32,394.18v92.16a41.25,41.25,0,0,0,38.42,41.14V511.63h6.44v15.79a41.24,41.24,0,0,0,37.63-41.08V394.18Z" transform="translate(-127.4 -73.46)"/><path class="cls-7" d="M423.74,511.63v15.85c.94.06,1.88.1,2.83.1h0c1.22,0,2.42-.06,3.61-.16V511.63Z" transform="translate(-127.4 -73.46)"/><path class="cls-6" d="M385.32,394.18v92.16a41.24,41.24,0,0,0,41.25,41.24h0a41.31,41.31,0,0,0,14.17-2.49V511.63h6.43v10.43a41.2,41.2,0,0,0,20.64-35.72V394.18Z" transform="translate(-127.4 -73.46)"/><path class="cls-7" d="M440.74,511.63v13.46a41.06,41.06,0,0,0,6.43-3V511.63Z" transform="translate(-127.4 -73.46)"/><path class="cls-6" d="M385.32,394.07v92.16A41.24,41.24,0,0,0,406,522V511.63h6.44V525a41.08,41.08,0,0,0,14.17,2.5h0a41.24,41.24,0,0,0,41.24-41.25V394.07Z" transform="translate(-127.4 -73.46)"/><path class="cls-7" d="M406,511.63V522a41.55,41.55,0,0,0,6.44,3V511.63Z" transform="translate(-127.4 -73.46)"/><rect class="cls-7" x="49.13" y="665.72" width="6.44" height="8.42"/><rect class="cls-7" x="66.81" y="665.72" width="6.44" height="8.42"/><rect class="cls-7" x="83.84" y="665.72" width="6.44" height="8.42"/><rect class="cls-7" x="249.87" y="665.72" width="6.44" height="8.42"/><rect class="cls-7" x="267.55" y="665.72" width="6.44" height="8.42"/><rect class="cls-7" x="284.58" y="665.72" width="6.44" height="8.42"/><g class="cls-8"><path d="M297.55,94.3h0a102.32,102.32,0,0,1,55.07,16A37.6,37.6,0,1,1,396.39,169,102.68,102.68,0,0,1,400.27,197v75.25a151.06,151.06,0,0,1,67.51,126v155.4A136.24,136.24,0,0,1,440.25,636v96.82a14.81,14.81,0,0,1-14.82,14.82H370.08a14.81,14.81,0,0,1-14.82-14.82V688.31a137.32,137.32,0,0,1-24.32,2.16H297.55" transform="translate(-127.4 -73.46)"/><path d="M381.42,111.86a22.6,22.6,0,0,1,9.81,43A102.32,102.32,0,0,1,396.39,169a37.61,37.61,0,1,0-43.77-58.67,104.06,104.06,0,0,1,12.07,9A22.54,22.54,0,0,1,381.42,111.86Z" transform="translate(-127.4 -73.46)"/><path d="M404,134.46a22.6,22.6,0,0,0-39.33-15.19,103.09,103.09,0,0,1,26.54,35.55A22.6,22.6,0,0,0,404,134.46Z" transform="translate(-127.4 -73.46)"/><path d="M400.27,272.27V197a102.5,102.5,0,0,0-35.58-77.75,104.06,104.06,0,0,0-12.07-9,102.32,102.32,0,0,0-55.07-16h0v68.17a32.2,32.2,0,0,1,0,64.39V247h19A150.47,150.47,0,0,1,400.27,272.27ZM354.09,150.33a4,4,0,1,1-4-4A4,4,0,0,1,354.09,150.33Z" transform="translate(-127.4 -73.46)"/><path d="M329.74,194.67a32.19,32.19,0,0,0-32.19-32.2,15.87,15.87,0,0,1,0,31.73v32.66A32.19,32.19,0,0,0,329.74,194.67Z" transform="translate(-127.4 -73.46)"/><path d="M313.41,178.34a15.86,15.86,0,0,0-15.86-15.87V194.2A15.86,15.86,0,0,0,313.41,178.34Z" transform="translate(-127.4 -73.46)"/><path d="M355.26,688.31v44.46a14.81,14.81,0,0,0,14.82,14.82h7.1v-8.41h6.44v8.41h11.24v-8.41h6.44v8.41h10.59v-8.41h6.44v8.41h7.1a14.81,14.81,0,0,0,14.82-14.82V636A136.78,136.78,0,0,1,355.26,688.31Z" transform="translate(-127.4 -73.46)"/><path d="M346.16,150.33a4,4,0,1,0,4-4A4,4,0,0,0,346.16,150.33Z" transform="translate(-127.4 -73.46)"/><path d="M355.26,688.31A136.88,136.88,0,0,0,467.78,553.62V398.22A151.19,151.19,0,0,0,316.57,247h-19V576.71a4,4,0,0,1,0,7.93V690.47h33.39A137.32,137.32,0,0,0,355.26,688.31ZM467.72,394.18v92.16a41.24,41.24,0,0,1-22.16,36.57l-.09,0c-.48.25-1,.5-1.47.73l-.43.19c-.39.18-.79.37-1.19.54s-.93.37-1.4.54l-.33.14h0a41.12,41.12,0,0,1-10.56,2.33h0c-.59.05-1.17.09-1.77.12s-1.22,0-1.84,0h0c-.54,0-1.08,0-1.62,0s-.81,0-1.21-.06h0a41.25,41.25,0,0,1-38.42-41.14V394.18Z" transform="translate(-127.4 -73.46)"/><path d="M301.51,580.68a4,4,0,0,0-4-4v7.93A4,4,0,0,0,301.51,580.68Z" transform="translate(-127.4 -73.46)"/><path d="M430.09,527.42c-.59.05-1.17.09-1.77.12C428.92,527.51,429.5,527.47,430.09,527.42Z" transform="translate(-127.4 -73.46)"/><path d="M385.23,486.34a41.25,41.25,0,0,0,38.42,41.14V511.63h6.44v15.79a41.12,41.12,0,0,0,10.56-2.33V511.63h6.43v10.43c-.5.29-1,.57-1.52.85a41.24,41.24,0,0,0,22.16-36.57V394.18H385.23Zm20.64,25.29h6.44V525a41.55,41.55,0,0,1-6.44-3Z" transform="translate(-127.4 -73.46)"/><path d="M441,525l-.33.14Z" transform="translate(-127.4 -73.46)"/><path d="M424.86,527.54l-1.21-.06C424.05,527.5,424.45,527.53,424.86,527.54Z" transform="translate(-127.4 -73.46)"/><path d="M443.57,523.87c-.39.19-.79.37-1.19.54C442.78,524.24,443.18,524.05,443.57,523.87Z" transform="translate(-127.4 -73.46)"/><path d="M445.47,523c-.48.25-1,.5-1.47.73C444.5,523.45,445,523.2,445.47,523Z" transform="translate(-127.4 -73.46)"/><path d="M423.65,511.63v15.85h0l1.21.06c.54,0,1.08,0,1.62,0h0c.62,0,1.23,0,1.84,0s1.18-.07,1.77-.12h0V511.63Z" transform="translate(-127.4 -73.46)"/><path d="M447.08,511.63h-6.43v13.46h0L441,525c.47-.17.94-.35,1.4-.54s.8-.35,1.19-.54l.43-.19c.5-.23,1-.48,1.47-.73l.09,0c.51-.28,1-.56,1.52-.85Z" transform="translate(-127.4 -73.46)"/><path d="M412.31,511.63h-6.44V522a41.55,41.55,0,0,0,6.44,3Z" transform="translate(-127.4 -73.46)"/><rect x="249.78" y="665.72" width="6.44" height="8.42"/><rect x="267.46" y="665.72" width="6.44" height="8.42"/><rect x="284.49" y="665.72" width="6.44" height="8.42"/></g><path class="cls-9" d="M297.2,73.51c-59.91,0-108.48,43.29-108.48,96.69,0,.52,0,1,0,1.55h11.78c0-.46,0-.92,0-1.38,0-47.6,43.29-86.19,96.69-86.19s96.69,38.59,96.69,86.19c0,.46,0,.92,0,1.38h11.78c0-.52,0-1,0-1.55C405.68,116.8,357.11,73.51,297.2,73.51Z" transform="translate(-127.4 -73.46)"/><path class="cls-10" d="M190.48,146h9.88a0,0,0,0,1,0,0v59.86a0,0,0,0,1,0,0h-9.88A29.93,29.93,0,0,1,160.55,176v0A29.93,29.93,0,0,1,190.48,146Z" transform="translate(-93.85 -102.31) rotate(10.07)"/><path class="cls-10" d="M424.78,146h9.88a0,0,0,0,1,0,0v59.86a0,0,0,0,1,0,0h-9.88A29.93,29.93,0,0,1,394.85,176v0A29.93,29.93,0,0,1,424.78,146Z" transform="translate(726.48 203.2) rotate(169.93)"/><rect class="cls-11" x="193" y="148.83" width="7.1" height="60.06" transform="translate(-93.09 -105.08) rotate(10.07)"/><rect class="cls-11" x="395.36" y="148.74" width="7.1" height="60.06" transform="translate(695.53 211.56) rotate(169.93)"/><g class="cls-8"><path class="cls-8" d="M297.25,73.46h0c51.28,0,94.24,31.72,105.56,74.34a29.94,29.94,0,0,1,31.59,24.62h0a29.93,29.93,0,0,1-24.23,34.7l-2.48.44,0,.11-7,1.24v-.1l-.26,0L390,149.92l.26,0,0-.1.92-.16c-10.41-37.6-48.49-65.48-93.88-65.48h0" transform="translate(-127.4 -73.46)"/><path d="M391.13,149.61l6.07-1.08,0,.1,2.48-.44c1-.18,2.08-.31,3.11-.39-11.32-42.62-54.28-74.34-105.56-74.34h0V84.13h0C342.64,84.13,380.72,112,391.13,149.61Z" transform="translate(-127.4 -73.46)"/><path d="M397.22,148.63l10.47,58.93,2.48-.44a29.93,29.93,0,0,0,24.23-34.7h0a29.94,29.94,0,0,0-31.59-24.62c-1,.08-2.07.21-3.11.39Z" transform="translate(-127.4 -73.46)"/><rect x="395.2" y="149.43" width="0.26" height="59.86" transform="translate(-152.67 -1.6) rotate(-10.07)"/><polygon points="269.82 75.17 269.8 75.07 263.72 76.15 262.81 76.31 262.83 76.41 273.3 135.35 273.31 135.45 280.31 134.21 280.29 134.1 269.82 75.17"/></g></svg>