<svg id="Capa_1" data-name="Capa 1" xmlns="http://www.w3.org/2000/svg" viewBox="0 0 251.37 471.09"><defs><style>.cls-1{fill:#ffd05b;}.cls-2{fill:#f9b54c;}.cls-3{fill:#f2f2f2;}.cls-4{opacity:0.2;}.cls-5{fill:#cbced1;}.cls-6{fill:#ff8086;}.cls-7{fill:#e5646e;}.cls-8{fill:#aedb81;}.cls-9{fill:#95cc81;}.cls-10{fill:#c8eb82;}.cls-11{fill:#896638;}.cls-12{fill:#a5804a;}.cls-13{opacity:0.08;}.cls-14{opacity:0.05;}</style></defs><title>cactus</title><path class="cls-1" d="M294.09,91l24.37,34a4.82,4.82,0,0,0,6.71,1.1l43.61-31.25a4.83,4.83,0,0,0,1.1-6.72l-24.37-34Z" transform="translate(-119.41 -28.29)"/><polygon class="cls-2" points="226.1 25.88 216.64 66.98 174.68 62.74 187.09 25.76 226.1 25.88"/><polygon class="cls-3" points="211.01 14.34 224.4 33.02 216.64 66.98 181.99 63.42 168.59 44.74 211.01 14.34"/><path class="cls-2" d="M370.61,91.56a4.53,4.53,0,0,1-1.79,3.38l-43.6,31.26a4.53,4.53,0,0,1-3.78.6l7.48-32.25,7.13.71,1.62-7Z" transform="translate(-119.41 -28.29)"/><path class="cls-1" d="M370.75,91.75a4.81,4.81,0,0,1-2,3.13l-43.61,31.25a5.18,5.18,0,0,1-3.59.87L331,94.3a5.87,5.87,0,0,1,5.83-4.18Z" transform="translate(-119.41 -28.29)"/><ellipse class="cls-4" cx="121.25" cy="464.6" rx="116.79" ry="6.49"/><rect class="cls-5" x="292.68" y="61.72" width="40.36" height="2.53" transform="translate(-97.52 165.78) rotate(-35.63)"/><rect class="cls-5" x="296.43" y="66.95" width="40.36" height="2.53" transform="translate(-99.87 168.95) rotate(-35.63)"/><rect class="cls-5" x="300.23" y="72.25" width="40.36" height="2.53" transform="translate(-102.24 172.15) rotate(-35.63)"/><path class="cls-6" d="M134.62,135c0,8.08,3.95,15.26,10.13,20.28,6.18-5,10.14-12.2,10.14-20.28a25.75,25.75,0,0,0-8.31-18.67,2.67,2.67,0,0,0-3.65,0A25.75,25.75,0,0,0,134.62,135Z" transform="translate(-119.41 -28.29)"/><path class="cls-6" d="M151.05,136.38a23,23,0,0,0-6.3,18.89,23,23,0,0,0,18.89-6.3,22.51,22.51,0,0,0,6.44-16.43,2.68,2.68,0,0,0-2.6-2.6,22.55,22.55,0,0,0-16.43,6.44Z" transform="translate(-119.41 -28.29)"/><path class="cls-7" d="M138.44,136.38a23,23,0,0,1,6.29,18.89,22.93,22.93,0,0,1-18.88-6.3,22.51,22.51,0,0,1-6.44-16.43,2.68,2.68,0,0,1,2.6-2.6A22.57,22.57,0,0,1,138.44,136.38Z" transform="translate(-119.41 -28.29)"/><path class="cls-6" d="M327.13,117.78" transform="translate(-119.41 -28.29)"/><path class="cls-6" d="M327.13,117.78" transform="translate(-119.41 -28.29)"/><path class="cls-7" d="M327.11,117.78" transform="translate(-119.41 -28.29)"/><path class="cls-6" d="M230.66,47.67c0,8.08,4,15.27,10.14,20.28,6.18-5,10.14-12.2,10.14-20.28A25.75,25.75,0,0,0,242.63,29,2.71,2.71,0,0,0,239,29a25.75,25.75,0,0,0-8.31,18.67Z" transform="translate(-119.41 -28.29)"/><path class="cls-6" d="M247.1,49.06A23,23,0,0,0,240.8,68a23,23,0,0,0,18.89-6.29,22.62,22.62,0,0,0,6.44-16.44,2.67,2.67,0,0,0-2.6-2.59,22.55,22.55,0,0,0-16.43,6.43Z" transform="translate(-119.41 -28.29)"/><path class="cls-7" d="M234.49,49.06A23,23,0,0,1,240.78,68a23,23,0,0,1-18.89-6.29,22.57,22.57,0,0,1-6.43-16.44,2.65,2.65,0,0,1,2.59-2.59A22.58,22.58,0,0,1,234.49,49.06Z" transform="translate(-119.41 -28.29)"/><path class="cls-8" d="M158.6,266.67,144.49,155.41c-11.2,0-20.28,11.19-20.28,25v75c0,27.6,18.16,50,40.55,50h45.63V266.67Z" transform="translate(-119.41 -28.29)"/><path class="cls-9" d="M164.76,180.4v75h45.63v25H164.76c-11.19,0-20.27-11.19-20.27-25v-100C155.69,155.41,164.76,166.6,164.76,180.4Z" transform="translate(-119.41 -28.29)"/><path class="cls-8" d="M327,117.93l-13.5,25v74.94H271.22v37.51H306.7c22.4,0,40.55-22.38,40.55-50V142.92c0-13.8-9.08-25-20.27-25Z" transform="translate(-119.41 -28.29)"/><path class="cls-9" d="M306.7,142.92v62.47H271.22v25H306.7c11.2,0,20.28-11.19,20.28-25V117.93C315.78,117.93,306.7,129.12,306.7,142.92Z" transform="translate(-119.41 -28.29)"/><path class="cls-8" d="M240.8,68c-22.4,0-40.55,22.38-40.55,50V405.3h81.1V117.93c0-27.6-18.15-50-40.55-50Z" transform="translate(-119.41 -28.29)"/><path class="cls-10" d="M240.8,68c-11.2,0-10,22.38-10,50V405.3h30.23V117.93c0-27.6-9.08-50-20.28-50Z" transform="translate(-119.41 -28.29)"/><path class="cls-11" d="M278.15,492.89h-74.7c-4.76,0-8.82-3.05-9.63-7.22l-13.49-70.23c-1-5.3,3.58-10.14,9.63-10.14H291.64c6.05,0,10.65,4.84,9.63,10.14l-13.49,70.23C287,489.84,282.91,492.89,278.15,492.89Z" transform="translate(-119.41 -28.29)"/><path class="cls-9" d="M296.56,399.05H240.8V68c-11.2,0-20.28,22.38-20.28,50V399.05H185c-2.8,0-5.07,2.8-5.07,6.25s2.27,6.25,5.07,6.25H296.56c2.8,0,5.07-2.8,5.07-6.25S299.36,399.05,296.56,399.05Z" transform="translate(-119.41 -28.29)"/><rect class="cls-12" x="44.17" y="366.1" width="154.44" height="21.16" rx="7.18"/><g class="cls-13"><path class="cls-14" d="M240.66,28.29a2.69,2.69,0,0,1,2,.71,25.89,25.89,0,0,1,8.25,17.06,23.23,23.23,0,0,1,12.65-3.44,2.68,2.68,0,0,1,2.6,2.6,22,22,0,0,1-22.46,22.86c21.06,1.82,37.68,23.43,37.68,49.84v87.46H306.7V142.91c0-13.8,9.08-25,20.28-25s20.27,11.19,20.27,25v62.47c0,27.61-18.15,50-40.55,50H281.35v139h29.5a7.18,7.18,0,0,1,7.17,7.18v6.8a7.17,7.17,0,0,1-7.17,7.18h-9.6l-13.47,70.13c-.8,4.17-4.87,7.22-9.63,7.22H240.66m86.47-375.11h0l0,0v0" transform="translate(-119.41 -28.29)"/><path d="M240.78,68h0l0,0Z" transform="translate(-119.41 -28.29)"/><path d="M327.11,117.76l0,0h0s0-.09,0-.13S327.11,117.73,327.11,117.76Z" transform="translate(-119.41 -28.29)"/><path d="M327.12,117.65s0,.09,0,.13h0" transform="translate(-119.41 -28.29)"/><path d="M327.11,117.78v0s0-.07,0-.11" transform="translate(-119.41 -28.29)"/><path d="M240.78,67.93l0,0h0s0-.09,0-.13A.41.41,0,0,1,240.78,67.93Z" transform="translate(-119.41 -28.29)"/><path d="M247.1,49.06a21.12,21.12,0,0,1,3.78-3A25.89,25.89,0,0,0,242.63,29a2.69,2.69,0,0,0-2-.71V61.54c.05.36.09.72.13,1.09A22.15,22.15,0,0,1,247.1,49.06Z" transform="translate(-119.41 -28.29)"/><path d="M240.79,62.63a25.72,25.72,0,0,1,0,5.19s0,.08,0,.13h0c1,0,1.92,0,2.87.13a22,22,0,0,0,22.46-22.86,2.68,2.68,0,0,0-2.6-2.6,23.23,23.23,0,0,0-12.65,3.44,21.12,21.12,0,0,0-3.78,3A22.15,22.15,0,0,0,240.79,62.63Z" transform="translate(-119.41 -28.29)"/><path d="M240.78,68v0a.41.41,0,0,0,0-.11,25.72,25.72,0,0,0,0-5.19c0-.37-.08-.73-.13-1.09V68Z" transform="translate(-119.41 -28.29)"/><path d="M306.7,230.37H281.35v25H306.7c22.4,0,40.55-22.37,40.55-50V142.91c0-13.8-9.08-25-20.27-25v87.46C327,219.18,317.9,230.37,306.7,230.37Z" transform="translate(-119.41 -28.29)"/><path d="M281.35,230.37H306.7c11.2,0,20.28-11.19,20.28-25V117.92c-11.2,0-20.28,11.19-20.28,25v62.47H281.35Z" transform="translate(-119.41 -28.29)"/><path d="M240.8,68h0Z" transform="translate(-119.41 -28.29)"/><path d="M240.8,68c11.2,0,20.28,22.37,20.28,50V394.38h20.27V117.92c0-26.41-16.62-48-37.68-49.84C242.72,68,241.77,68,240.8,68Z" transform="translate(-119.41 -28.29)"/><path d="M240.8,68V394.38h20.28V117.92C261.08,90.32,252,68,240.8,68Z" transform="translate(-119.41 -28.29)"/><path d="M287.78,485.67l13.47-70.13H240.66v77.35h37.49C282.91,492.89,287,489.84,287.78,485.67Z" transform="translate(-119.41 -28.29)"/><path d="M240.8,68h-.14V394.38h.14Z" transform="translate(-119.41 -28.29)"/><path d="M310.85,415.54a7.17,7.17,0,0,0,7.17-7.18v-6.8a7.18,7.18,0,0,0-7.17-7.18H240.66v21.16h70.19Z" transform="translate(-119.41 -28.29)"/></g></svg>