<svg xmlns="http://www.w3.org/2000/svg" xmlns:xlink="http://www.w3.org/1999/xlink" viewBox="0 0 117.19 92.02"><defs><style>.cls-1,.cls-12{fill:none;}.cls-2{isolation:isolate;}.cls-3{clip-path:url(#clip-path);}.cls-4{fill:#00b3e2;}.cls-5{fill:#19b8e2;}.cls-6{fill:#48c2e2;}.cls-7{fill:#009dc6;}.cls-8{fill:#2acaf4;}.cls-9{fill:#24afd4;}.cls-10,.cls-13{fill:#00d0e2;mix-blend-mode:overlay;}.cls-11,.cls-14{fill:#00e4e2;mix-blend-mode:multiply;}.cls-12{stroke:#24afd4;stroke-miterlimit:10;}.cls-13{opacity:0.37;}.cls-14{opacity:0.34;}</style><clipPath id="clip-path"><circle class="cls-1" cx="57.17" cy="46.01" r="46" transform="translate(-8.57 13.39) rotate(-12.44)"/></clipPath></defs><title>Asset 2</title><g class="cls-2"><g id="Layer_2" data-name="Layer 2"><g id="OBJECTS"><g class="cls-3"><circle class="cls-4" cx="57.17" cy="46.01" r="46" transform="translate(-8.57 13.39) rotate(-12.44)"/><path class="cls-5" d="M50.05,9c-3.21,4.56-3.91,10.59-2.63,16a32.84,32.84,0,0,0,8.14,14.41c5.32,5.8,12.42,10.4,20.27,11s16.3-3.77,18.91-11.19c2.51-7.15-.72-15.11-5.31-21.14C81,7,61.31-7,50.05,9Z"/><path class="cls-6" d="M70.13,28.77a23.2,23.2,0,0,0,7.81,3.86,10.23,10.23,0,0,0,8.39-1.39c3.39-2.52,4.21-7.5,2.87-11.52s-4.38-7.21-7.6-10c-6.22-5.31-19.34-12.59-26-3.6C49.54,14.23,64.46,24.81,70.13,28.77Z"/><path class="cls-7" d="M48,55.3a2.58,2.58,0,0,1,.76-2.73,3.59,3.59,0,0,1,2.8-.78,5,5,0,0,1,1.21.33,4.83,4.83,0,0,0-2.42-1.06,3.53,3.53,0,0,0-2.81.78,2.57,2.57,0,0,0-.76,2.72,2.9,2.9,0,0,0,1.81,1.59A2.41,2.41,0,0,1,48,55.3Z"/><path class="cls-8" d="M51.52,51.79a3.56,3.56,0,0,0-2.8.79A2.55,2.55,0,0,0,48,55.31a2.41,2.41,0,0,0,.59.85,4.63,4.63,0,0,0,.89.22,4,4,0,0,0,3.56-1,2.06,2.06,0,0,0-.29-3.24A4.93,4.93,0,0,0,51.52,51.79Z"/><path class="cls-7" d="M90,55.18a1.32,1.32,0,0,1,.39-1.42,1.86,1.86,0,0,1,1.46-.4,2.19,2.19,0,0,1,.63.17A2.56,2.56,0,0,0,91.21,53a1.85,1.85,0,0,0-1.46.41,1.35,1.35,0,0,0-.4,1.42,1.54,1.54,0,0,0,.94.82A1.12,1.12,0,0,1,90,55.18Z"/><path class="cls-8" d="M91.83,53.35a1.85,1.85,0,0,0-1.45.42A1.32,1.32,0,0,0,90,55.19a1.35,1.35,0,0,0,.31.44,2.37,2.37,0,0,0,.46.11,2,2,0,0,0,1.85-.54,1.07,1.07,0,0,0-.15-1.68A3,3,0,0,0,91.83,53.35Z"/><path class="cls-7" d="M45,16.87a1.93,1.93,0,0,1,.57-2.06,2.73,2.73,0,0,1,2.12-.59,3.44,3.44,0,0,1,.91.25,3.64,3.64,0,0,0-1.83-.8,2.65,2.65,0,0,0-2.12.59A1.92,1.92,0,0,0,44,16.32a2.19,2.19,0,0,0,1.36,1.19A1.79,1.79,0,0,1,45,16.87Z"/><path class="cls-8" d="M47.64,14.22a2.71,2.71,0,0,0-2.13.6A1.91,1.91,0,0,0,45,16.88a1.67,1.67,0,0,0,.44.64,3.29,3.29,0,0,0,.67.17,3,3,0,0,0,2.7-.78,1.57,1.57,0,0,0-.22-2.45A3.62,3.62,0,0,0,47.64,14.22Z"/><path class="cls-7" d="M30.46,68.77a4.11,4.11,0,0,1,1.21-4.37,5.74,5.74,0,0,1,4.51-1.26,7.84,7.84,0,0,1,1.93.53A7.83,7.83,0,0,0,34.22,62a5.75,5.75,0,0,0-4.51,1.25A4.12,4.12,0,0,0,28.5,67.6a4.68,4.68,0,0,0,2.9,2.54A4,4,0,0,1,30.46,68.77Z"/><path class="cls-9" d="M36.16,63.14a5.77,5.77,0,0,0-4.5,1.27,4.1,4.1,0,0,0-1.19,4.38,3.72,3.72,0,0,0,1,1.36,7,7,0,0,0,1.42.36,6.38,6.38,0,0,0,5.73-1.66c1.79-2,1.07-3.9-.47-5.19A7.88,7.88,0,0,0,36.16,63.14Z"/><path class="cls-7" d="M50.57,79.61a4.11,4.11,0,0,1,4.54-.06,5.8,5.8,0,0,1,2.46,4,8.31,8.31,0,0,1,0,2,7.87,7.87,0,0,0,.55-4.21,5.76,5.76,0,0,0-2.46-4,4.1,4.1,0,0,0-4.53.06,4.63,4.63,0,0,0-1.64,3.49A3.82,3.82,0,0,1,50.57,79.61Z"/><path class="cls-9" d="M57.57,83.52a5.76,5.76,0,0,0-2.48-4,4.11,4.11,0,0,0-4.54.07,3.71,3.71,0,0,0-1,1.29,8,8,0,0,0,.05,1.47,6.36,6.36,0,0,0,3.19,5c2.43,1.16,4,0,4.86-1.89A7.81,7.81,0,0,0,57.57,83.52Z"/><path class="cls-7" d="M30,22.85a4.09,4.09,0,0,1,3.11-3.3,5.69,5.69,0,0,1,4.57,1,7.45,7.45,0,0,1,1.46,1.36,7.8,7.8,0,0,0-2.64-3.32,5.72,5.72,0,0,0-4.57-1,4.07,4.07,0,0,0-3.11,3.3,4.59,4.59,0,0,0,1.37,3.6A3.68,3.68,0,0,1,30,22.85Z"/><path class="cls-9" d="M37.7,20.53a5.74,5.74,0,0,0-4.58-1A4.08,4.08,0,0,0,30,22.87a3.69,3.69,0,0,0,.2,1.65,7.79,7.79,0,0,0,1.09,1,6.4,6.4,0,0,0,5.84,1.21c2.52-.95,2.77-2.95,2-4.82A7.79,7.79,0,0,0,37.7,20.53Z"/><path class="cls-7" d="M49.84,64.35a2,2,0,0,1-.62,2.11A2.78,2.78,0,0,1,47,67a3.75,3.75,0,0,1-.93-.27,3.81,3.81,0,0,0,1.87.86,2.82,2.82,0,0,0,2.2-.57,2,2,0,0,0,.62-2.12,2.23,2.23,0,0,0-1.38-1.25A1.78,1.78,0,0,1,49.84,64.35Z"/><path class="cls-8" d="M47,67a2.78,2.78,0,0,0,2.2-.58,2,2,0,0,0,.61-2.11,1.93,1.93,0,0,0-.45-.67,3.34,3.34,0,0,0-.69-.18,3.08,3.08,0,0,0-2.79.76,1.6,1.6,0,0,0,.19,2.52A3.71,3.71,0,0,0,47,67Z"/><path class="cls-7" d="M22,57.79a2,2,0,0,1-.62,2.11,2.78,2.78,0,0,1-2.2.58,4.23,4.23,0,0,1-.93-.27,3.8,3.8,0,0,0,1.87.85,2.78,2.78,0,0,0,2.2-.57A2,2,0,0,0,23,58.38a2.24,2.24,0,0,0-1.38-1.26A1.78,1.78,0,0,1,22,57.79Z"/><path class="cls-8" d="M19.22,60.48a2.78,2.78,0,0,0,2.2-.58A2,2,0,0,0,22,57.78a1.89,1.89,0,0,0-.45-.66,3.37,3.37,0,0,0-.69-.19,3.11,3.11,0,0,0-2.79.76,1.6,1.6,0,0,0,.19,2.52A3.37,3.37,0,0,0,19.22,60.48Z"/><path class="cls-7" d="M73.71,55.41a1.76,1.76,0,0,1-1.59,1.14,2.45,2.45,0,0,1-1.85-.8,3.34,3.34,0,0,1-.51-.69,3.47,3.47,0,0,0,.85,1.62,2.48,2.48,0,0,0,1.85.8,1.8,1.8,0,0,0,1.59-1.15,2,2,0,0,0-.29-1.63A1.7,1.7,0,0,1,73.71,55.41Z"/><path class="cls-8" d="M70.28,55.76a2.44,2.44,0,0,0,1.85.79,1.77,1.77,0,0,0,1.58-1.15,1.55,1.55,0,0,0,.05-.71,3.75,3.75,0,0,0-.38-.51,2.75,2.75,0,0,0-2.37-1,1.41,1.41,0,0,0-1.24,1.86A2.63,2.63,0,0,0,70.28,55.76Z"/><path class="cls-7" d="M61.94,60.41a1.21,1.21,0,0,1,.29,1.27,1.64,1.64,0,0,1-1,.92,2,2,0,0,1-.56.13,2.26,2.26,0,0,0,1.21-.1,1.66,1.66,0,0,0,1-.93,1.18,1.18,0,0,0-.29-1.26,1.3,1.3,0,0,0-1.07-.24A1.19,1.19,0,0,1,61.94,60.41Z"/><path class="cls-8" d="M61.27,62.6a1.66,1.66,0,0,0,1-.93,1.18,1.18,0,0,0-.3-1.26,1,1,0,0,0-.42-.21,1.89,1.89,0,0,0-.41.1,1.84,1.84,0,0,0-1.21,1.19.94.94,0,0,0,.82,1.24A2,2,0,0,0,61.27,62.6Z"/><path class="cls-10" d="M50.67,72.71c6.8-1.8,13.14-5,19.76-7.36a83.47,83.47,0,0,1,43.66-3.29,106.14,106.14,0,0,1-1.8,10.65c-.84,3.78-2.09,7.83-5.29,10-4.6,3.13-10.73,1-16.14-.27-10.25-2.43-21-1.38-31.44-.23S38.28,84.59,28,82.5c-5.27-1.07-12.17-3.22-16.09-7.13-3.68-3.66-2.16-6.44,3.39-6.16s11.33,4.12,17,4.77A49.88,49.88,0,0,0,50.67,72.71Z"/><path class="cls-11" d="M32.58,58.9c7.28-2.5,13-8.07,19.46-12.26C69.83,35.1,94.3,34.84,112.34,46a56.29,56.29,0,0,0,.46-19.33c-.64-4.21-1.93-8.63-5.2-11.35-3-2.51-7.16-3.13-11.08-3.14-13.94,0-27.06,6.26-39.15,13.2-10.61,6.09-22.3,13.07-34.26,10.45-6-1.32-12.33-5-18-2.49C-5,37.9,2,49.24,7.79,53.94,14.57,59.46,24.2,61.78,32.58,58.9Z"/><path class="cls-10" d="M39.25,44.2c7.13-3.07,13.54-7.55,20.26-11.42,8.9-5.12,18.58-9.21,28.78-10.22s21,1.34,28.9,7.92q-.12-7-.26-14.08a12.32,12.32,0,0,0-.74-4.84,9.27,9.27,0,0,0-4.25-4.14C105.73,4.05,98,4.63,91.35,7s-12.57,6.42-18.73,9.9A125.44,125.44,0,0,1,45.69,28.21c-4.76,1.37-10,2.54-15,1.67-5.81-1-7.69-5-12.27-7.57-5-2.83-7.86-.14-9.76,5.07C1.19,47.77,25.53,50.09,39.25,44.2Z"/><path class="cls-12" d="M10.07,23.39c2.07,7.2,9.67,11.75,17.14,12.36s14.82-2,21.68-5a165.83,165.83,0,0,0,16.2-8.16c5.07-2.9,10-6.09,15.45-8.22s11.51-3.15,17.13-1.54"/><path class="cls-12" d="M14.56,73.46c5.4,4.08,12.25,5.94,19,6.11s13.49-1.24,20-3.18c7-2.11,13.93-4.87,21.24-5.37,10.82-.73,21.36,3.59,30.79,9"/><path class="cls-13" d="M65.1,14.53a14.75,14.75,0,0,0,6.34,4.12,10.84,10.84,0,0,0,6.2.61,5.51,5.51,0,0,0,4.24-4.19,5.77,5.77,0,0,0-.23-2.51c-1.11-3.64-4.62-6-8.17-7.41-2.72-1.07-7.76-2.45-9.94.38C61.57,8.09,63.31,12.42,65.1,14.53Z"/><path class="cls-14" d="M17.68,56.11c1.41,9.26,5.79,18.27,13.1,24.12a44,44,0,0,0,14.53,7.25c7.4,2.29,15.33,3.41,22.9,1.79a4.09,4.09,0,0,0,1.8-.73,4.23,4.23,0,0,0,1.06-1.72c.83-2,1.68-4.18,1.35-6.35-.39-2.55-2.36-4.58-4.52-6s-4.61-2.35-6.75-3.79A17.47,17.47,0,0,1,53.7,58.87C52.84,53,55.05,47.08,55,41.14,55,33.69,50.66,21.27,44.58,17c-5.69-4-18.36-.55-22.5,7.25C17,33.88,16.05,45.44,17.68,56.11Z"/><path class="cls-14" d="M23.27,42.91c.57,12.82,5.12,25.81,14.34,34.73s23.48,13,35.46,8.44c3.24-1.24,6.63-3.65,6.73-7.11a8.12,8.12,0,0,0-1.34-4.29c-5.85-9.88-19.9-12.42-25.81-22.26C46.93,42.89,51,30.66,49.59,19.64,49,15.34,47,10.58,42.84,9.4c-5.54-1.57-12,4.54-14.67,9C23.92,25.49,22.92,34.8,23.27,42.91Z"/><path class="cls-14" d="M46.29,49.65a17.76,17.76,0,0,1-23,14.46,13.73,13.73,0,0,1-5-2.79c-2.86-2.58-4.19-6.47-4.76-10.29A25.36,25.36,0,0,1,15.35,36.2c4-8.23,14.29-12.75,23.11-10.43,3.81,1,5.95,2.7,6.75,6.57C46.29,37.57,47,44.38,46.29,49.65Z"/><path class="cls-14" d="M57.61,83.89c2.87,2.77,7.16,3.75,11.12,3.25a25.73,25.73,0,0,0,10.93-4.6C84.6,79.2,89.83,73.66,88,67.12c-1.47-5.25-7.15-9-12.45-7.68s-10.71,5.9-15.13,9C55.11,72.2,52.07,78.53,57.61,83.89Z"/></g></g></g></g></svg>