<svg id="Layer_1" data-name="Layer 1" xmlns="http://www.w3.org/2000/svg" viewBox="0 0 208.82 292.68"><defs><style>.cls-1{fill:#ebf0f3;}.cls-2{fill:#e56353;}.cls-3{fill:#d15241;}.cls-4{fill:#e1e6e9;}.cls-5{fill:#d5d0dd;}.cls-6{fill:#bfbac6;}.cls-7{fill:#64798a;}</style></defs><title>rocket</title><path class="cls-1" d="M200.44,6.79c.35.87.71,1.82,1.09,2.84C201.15,8.61,200.79,7.66,200.44,6.79Z" transform="translate(0.01 0)"/><path class="cls-1" d="M198.56,2.48c.52,1.08,1.17,2.51,1.89,4.28C199.71,5,199.06,3.56,198.56,2.48Z" transform="translate(0.01 0)"/><path class="cls-1" d="M197.45.34l.34.63Z" transform="translate(0.01 0)"/><path class="cls-1" d="M197.9,1.19c.18.34.38.74.61,1.22C198.28,1.93,198.08,1.56,197.9,1.19Z" transform="translate(0.01 0)"/><path class="cls-1" d="M197.26,0l.13.23Z" transform="translate(0.01 0)"/><path class="cls-2" d="M171,46Z" transform="translate(0.01 0)"/><path class="cls-2" d="M170.39,44.8a.76.76,0,0,0,.09.18Z" transform="translate(0.01 0)"/><path class="cls-2" d="M170.07,44.2a.31.31,0,0,0,.05.1A.31.31,0,0,1,170.07,44.2Z" transform="translate(0.01 0)"/><path class="cls-2" d="M173.35,51.72v0Z" transform="translate(0.01 0)"/><path class="cls-2" d="M172.48,49.43Z" transform="translate(0.01 0)"/><path class="cls-2" d="M2.85,226.76A60.89,60.89,0,0,1,85,201.1c.48.26,1,.51,1.43.78a63.71,63.71,0,0,1,25.36,85.21,60.74,60.74,0,0,1-3.35,5.59A70.79,70.79,0,0,0,135,264.79a74,74,0,0,0-29.46-99A70.73,70.73,0,0,0,9.32,193c-.31.55-.61,1.11-.9,1.67a72.93,72.93,0,0,0-8.32,38A63.94,63.94,0,0,1,2.85,226.76Z" transform="translate(0.01 0)"/><path class="cls-1" d="M197.26,0S129.56.23,75.13,100.85c-23,42.49-38.82,90-40.24,121.1l65.3,35.35c25.28-18.21,56.4-57.42,79.4-99.91C232.64,59.39,197.26,0,197.26,0Zm-42,114.15a24.62,24.62,0,1,1,16.59-30.61v0a24.62,24.62,0,0,1-16.58,30.59Zm53.47-63.5c0-2.21-.14-4.36-.29-6.43.15,2.08.26,4.22.31,6.43Zm-.31-6.73c-.3-4.42-.78-8.52-1.37-12.3a117.41,117.41,0,0,0-5.49-21.86,116.66,116.66,0,0,1,5.5,21.86c.6,3.78,1.08,7.88,1.38,12.3Zm.32,7c.1,4.65,0,9.58-.36,14.8.38-5.16.48-10.16.38-14.79Z" transform="translate(0.01 0)"/><path class="cls-2" d="M197.26,0S169.7.14,135.62,26.34L195.56,58.8C204,19.67,197.26,0,197.26,0Z" transform="translate(0.01 0)"/><path class="cls-2" d="M208.75,50.65v.28A2.61,2.61,0,0,0,208.75,50.65Z" transform="translate(0.01 0)"/><path class="cls-2" d="M208.44,43.92v.3A1,1,0,0,0,208.44,43.92Z" transform="translate(0.01 0)"/><path class="cls-2" d="M208.4,65.74Z" transform="translate(0.01 0)"/><path class="cls-3" d="M208.4,65.73c.36-5.22.46-10.15.36-14.8v-.28c0-2.21-.14-4.36-.29-6.43v-.3a125.43,125.43,0,0,0-6.91-34.16l-.05-.13c-.37-1-.73-2-1.08-2.84h0c-.71-1.77-1.36-3.2-1.88-4.28V2.44c-.23-.48-.43-.88-.61-1.22a1.51,1.51,0,0,1-.11-.22l-.34-.63-.06-.11L197.3,0s6.69,19.67-1.69,58.8l12.83,6.94Z" transform="translate(0.01 0)"/><path class="cls-4" d="M107.23,223.94l18.53,10q-2.12,2.28-4.21,4.43l-18.54-10a166.72,166.72,0,0,1-21.36,18.9l18.54,10c10.2-7.35,21.35-18.15,32.54-31.17l-18.54-10C111.87,218.8,109.56,221.43,107.23,223.94Z" transform="translate(0.01 0)"/><path class="cls-4" d="M132.75,226.11a400.92,400.92,0,0,0,46.81-68.72c19.58-36.16,27.09-67,28.81-91.65L195.56,58.8c-4.9,22.88-14.94,52.39-34.51,88.56a406.41,406.41,0,0,1-43,64.13l18.54,10C135.33,223.08,134,224.56,132.75,226.11Z" transform="translate(0.01 0)"/><polygon class="cls-5" points="132.75 226.11 132.73 226.13 132.73 226.13 132.75 226.11"/><path class="cls-5" d="M44.93,171.89c-.6,1.94-1.17,3.86-1.73,5.77l71,38.43c1.3-1.51,2.6-3,3.89-4.6Z" transform="translate(0.01 0)"/><path class="cls-6" d="M136.62,221.56l-18.54-10c-1.29,1.57-2.59,3.09-3.89,4.6l18.54,10h0C134,224.56,135.33,223.08,136.62,221.56Z" transform="translate(0.01 0)"/><path class="cls-5" d="M40.44,187.78c-.5,2-1,4-1.4,5.95l64,34.64c1.4-1.45,2.81-2.91,4.22-4.43Z" transform="translate(0.01 0)"/><path class="cls-6" d="M125.76,234l-18.53-10c-1.41,1.52-2.81,3-4.22,4.42l18.54,10Q123.65,236.25,125.76,234Z" transform="translate(0.01 0)"/><polyline class="cls-7" points="34.9 221.96 32.08 236.7 88.16 267.05 100.24 257.32"/><ellipse class="cls-2" cx="78.49" cy="219.31" rx="54.15" ry="5.13" transform="translate(-151.78 184.25) rotate(-61.65)"/><path class="cls-3" d="M77.18,218.62c11-20.39,21.58-37.07,26.95-43,.58-2.25.65-3.67.09-4-2.49-1.35-16,18.89-30.22,45.2S50.3,265.62,52.79,267c.56.31,1.7-.54,3.27-2.25C58,257,66.18,239,77.18,218.62Z" transform="translate(0.01 0)"/></svg>