<svg id="Layer_1" data-name="Layer 1" xmlns="http://www.w3.org/2000/svg" viewBox="0 0 208.81 292.69"><defs><style>.cls-1{fill:#ebf0f3;}.cls-2{fill:#e56353;}.cls-3{fill:#d15241;}.cls-4{fill:#79c6e0;}.cls-5{fill:#4e9eb7;}.cls-6{fill:#fff;opacity:0.2;}.cls-7{fill:#e1e6e9;}.cls-8{fill:#d5d0dd;}.cls-9{fill:#bfbac6;}.cls-10{fill:#64798a;}</style></defs><title>rocketship</title><path class="cls-1" d="M341.88,80.23c.35.87.71,1.82,1.09,2.84C342.59,82.05,342.23,81.1,341.88,80.23Z" transform="translate(-141.44 -73.44)"/><path class="cls-1" d="M340,75.92c.52,1.08,1.17,2.51,1.89,4.28C341.15,78.43,340.5,77,340,75.92Z" transform="translate(-141.44 -73.44)"/><path class="cls-1" d="M338.89,73.78l.34.63Z" transform="translate(-141.44 -73.44)"/><path class="cls-1" d="M339.34,74.63c.18.34.38.74.61,1.22C339.72,75.37,339.52,75,339.34,74.63Z" transform="translate(-141.44 -73.44)"/><path class="cls-1" d="M338.7,73.44l.13.23Z" transform="translate(-141.44 -73.44)"/><path class="cls-2" d="M312.4,119.39l0,0Z" transform="translate(-141.44 -73.44)"/><path class="cls-2" d="M311.83,118.24a.76.76,0,0,0,.09.18C311.88,118.35,311.86,118.3,311.83,118.24Z" transform="translate(-141.44 -73.44)"/><path class="cls-2" d="M311.51,117.64a.47.47,0,0,0,.05.1A.24.24,0,0,1,311.51,117.64Z" transform="translate(-141.44 -73.44)"/><path class="cls-2" d="M314.79,125.16l0,.11A.49.49,0,0,0,314.79,125.16Z" transform="translate(-141.44 -73.44)"/><path class="cls-2" d="M313.92,122.87s0,0,0,0S313.92,122.88,313.92,122.87Z" transform="translate(-141.44 -73.44)"/><path class="cls-2" d="M144.29,300.2a60.88,60.88,0,0,1,83.62-24.88,63.71,63.71,0,0,1,25.36,85.21,60.75,60.75,0,0,1-3.35,5.59,70.8,70.8,0,0,0,26.55-27.89,74,74,0,0,0-29.46-99,70.73,70.73,0,0,0-97.15,28.91,72.91,72.91,0,0,0-8.32,38A64.6,64.6,0,0,1,144.29,300.2Z" transform="translate(-141.44 -73.44)"/><path class="cls-1" d="M338.7,73.44S271,73.67,216.57,174.29c-23,42.49-38.82,90-40.24,121.1l65.3,35.35c25.28-18.21,56.4-57.42,79.4-99.91C374.08,132.83,338.7,73.44,338.7,73.44Z" transform="translate(-141.44 -73.44)"/><path class="cls-1" d="M349.9,117.66q.21,3.12.29,6.43Q350.12,120.78,349.9,117.66Z" transform="translate(-141.44 -73.44)"/><path class="cls-1" d="M349.88,117.36A125.22,125.22,0,0,0,343,83.2,125,125,0,0,1,349.88,117.36Z" transform="translate(-141.44 -73.44)"/><path class="cls-1" d="M350.2,124.37c.1,4.65,0,9.58-.36,14.8C350.2,134,350.3,129,350.2,124.37Z" transform="translate(-141.44 -73.44)"/><path class="cls-2" d="M338.7,73.44s-27.56.14-61.64,26.34L337,132.24C345.39,93.11,338.7,73.44,338.7,73.44Z" transform="translate(-141.44 -73.44)"/><path class="cls-2" d="M350.19,124.09c0,.1,0,.19,0,.28C350.2,124.28,350.19,124.19,350.19,124.09Z" transform="translate(-141.44 -73.44)"/><path class="cls-2" d="M349.88,117.36c0,.1,0,.2,0,.3C349.9,117.56,349.89,117.46,349.88,117.36Z" transform="translate(-141.44 -73.44)"/><path class="cls-2" d="M349.84,139.18h0Z" transform="translate(-141.44 -73.44)"/><path class="cls-3" d="M349.84,139.17c.36-5.22.46-10.15.36-14.8,0-.09,0-.18,0-.28q-.07-3.32-.29-6.43c0-.1,0-.2,0-.3A125.39,125.39,0,0,0,343,83.2l-.05-.13c-.37-1-.73-2-1.08-2.84l0,0c-.71-1.77-1.36-3.2-1.88-4.28l0-.07c-.23-.48-.43-.88-.61-1.22a2.26,2.26,0,0,1-.11-.22l-.34-.63a.6.6,0,0,1-.06-.11l-.13-.23s6.69,19.67-1.69,58.8l12.83,6.94Z" transform="translate(-141.44 -73.44)"/><circle class="cls-4" cx="148.26" cy="90.55" r="20.1"/><path class="cls-5" d="M274.21,157.54a18.35,18.35,0,0,1,32.67,16.71c.15-.25.34-.45.48-.71a20.1,20.1,0,1,0-27.24,8.11c.26.13.53.2.79.33A18.35,18.35,0,0,1,274.21,157.54Z" transform="translate(-141.44 -73.44)"/><rect class="cls-6" x="142.96" y="66.36" width="10.6" height="48.39"/><path class="cls-7" d="M248.67,297.38l18.53,10c-1.41,1.52-2.81,3-4.21,4.43l-18.54-10a166.16,166.16,0,0,1-21.36,18.9l18.54,10c10.2-7.35,21.35-18.15,32.54-31.17l-18.54-10C253.31,292.24,251,294.87,248.67,297.38Z" transform="translate(-141.44 -73.44)"/><path class="cls-7" d="M274.19,299.55A400.94,400.94,0,0,0,321,230.83c19.58-36.16,27.09-67.05,28.81-91.65L337,132.24c-4.9,22.88-14.94,52.39-34.51,88.56a406.4,406.4,0,0,1-43,64.13l18.54,10C276.77,296.52,275.48,298,274.19,299.55Z" transform="translate(-141.44 -73.44)"/><polygon class="cls-8" points="132.74 226.11 132.72 226.13 132.72 226.13 132.74 226.11"/><path class="cls-8" d="M186.37,245.33c-.6,1.94-1.17,3.86-1.73,5.77l71,38.43c1.3-1.51,2.6-3,3.89-4.6Z" transform="translate(-141.44 -73.44)"/><path class="cls-9" d="M278.06,295l-18.54-10c-1.29,1.57-2.59,3.09-3.89,4.6l18.54,10,0,0C275.48,298,276.77,296.52,278.06,295Z" transform="translate(-141.44 -73.44)"/><path class="cls-8" d="M181.88,261.22c-.5,2-1,4-1.4,5.95l64,34.64c1.4-1.45,2.81-2.91,4.22-4.43Z" transform="translate(-141.44 -73.44)"/><path class="cls-9" d="M267.2,307.41l-18.53-10c-1.41,1.52-2.81,3-4.22,4.42l18.54,10C264.39,310.4,265.79,308.93,267.2,307.41Z" transform="translate(-141.44 -73.44)"/><polyline class="cls-10" points="34.89 221.96 32.07 236.7 88.15 267.05 100.23 257.32"/><ellipse class="cls-2" cx="219.94" cy="292.78" rx="54.15" ry="5.13" transform="translate(-283.61 273.84) rotate(-61.65)"/><path class="cls-3" d="M218.62,292.06c11-20.39,21.58-37.07,26.95-42.95.58-2.25.65-3.67.09-4-2.49-1.35-16,18.89-30.22,45.2s-23.7,48.75-21.21,50.1c.56.31,1.7-.54,3.27-2.25C199.47,330.46,207.62,312.45,218.62,292.06Z" transform="translate(-141.44 -73.44)"/><path class="cls-2" d="M313.34,157a24.66,24.66,0,1,0-16.61,30.68A24.67,24.67,0,0,0,313.34,157Zm-17.91,26.3a20.09,20.09,0,1,1,13.53-25A20.08,20.08,0,0,1,295.43,183.25Z" transform="translate(-141.44 -73.44)"/></svg>